<?xml version="1.0" encoding="utf-8"?>
<!-- Generator: Adobe Illustrator 25.2.1, SVG Export Plug-In . SVG Version: 6.00 Build 0)  -->
<svg version="1.1" id="Layer_1" xmlns="http://www.w3.org/2000/svg" xmlns:xlink="http://www.w3.org/1999/xlink" x="0px" y="0px"
	 viewBox="0 0 32.6 32.6" style="enable-background:new 0 0 32.6 32.6;" xml:space="preserve">
<style type="text/css">
	.st0{fill:#EDEDED;}
</style>
<path class="st0" d="M16.3,0C7.3,0,0,7.3,0,16.3c0,9,7.3,16.3,16.3,16.3c9,0,16.3-7.3,16.3-16.3C32.6,7.3,25.3,0,16.3,0z M15,20.6
	c-0.5,0.6-0.9,1-1.4,1.4c-0.5,0.3-1,0.6-1.5,0.7c-0.5,0.1-1.1,0.2-1.9,0.2c-1.1,0-2.1-0.3-3.1-0.8c-0.9-0.5-1.7-1.3-2.2-2.3
	c-0.5-1-0.8-2.1-0.8-3.4c0-1.3,0.3-2.5,0.8-3.5c0.5-1,1.3-1.8,2.3-2.4c1-0.6,2.1-0.8,3.4-0.8c1.1,0,2.1,0.2,3,0.7
	c1,0.5,1.5,1.3,1.5,2.4c0,0.7-0.2,1.2-0.6,1.7c-0.4,0.5-1,0.7-1.7,0.7c-0.3,0-0.6-0.1-0.8-0.2c-0.2-0.1-0.4-0.3-0.5-0.4
	c-0.1-0.1-0.2-0.3-0.2-0.6c0-0.3,0.3-0.4,0.5-0.6c0.1-0.1,0.2-0.2,0.3-0.3c0.1-0.1,0.1-0.2,0.1-0.4c0-0.4-0.1-0.7-0.4-0.9
	c-0.3-0.2-0.7-0.4-1.2-0.4c-0.6,0-1.2,0.2-1.7,0.5c-0.5,0.4-0.9,0.9-1.2,1.6c-0.3,0.7-0.4,1.6-0.4,2.7c0,0.9,0.2,1.7,0.5,2.4
	c0.3,0.7,0.7,1.3,1.3,1.7c0.5,0.4,1.2,0.6,1.9,0.6c0.6,0,1-0.1,1.4-0.3c0.4-0.2,0.8-0.6,1.1-1.1c0.2-0.4,0.8-0.5,1.3-0.2l0,0
	c0.3,0.2,0.5,0.5,0.5,0.8C15.2,20.2,15.2,20.4,15,20.6z M27.9,11.7c-0.5,0-0.8,0.1-0.9,0.2c-0.1,0.1-0.3,0.3-0.5,0.7
	c-0.4,1-0.9,2.6-1.7,4.8c-0.8,2.2-1.4,3.8-1.8,4.9l-0.1,0.3h-1.6l-1.8-5.1c-0.8-2.2-1.4-3.7-1.7-4.7c-0.2-0.6-0.4-0.8-0.5-0.9
	c-0.1-0.1-0.3-0.2-0.6-0.3l-0.2,0c-0.3-0.1-0.5-0.2-0.5-0.4c-0.1-0.1-0.1-0.3-0.1-0.5c0-0.4,0.2-0.6,0.4-0.7
	c0.2-0.1,0.4-0.1,0.6-0.1c1,0,1.8,0.2,2.3,0.5c0.6,0.3,1,0.9,1.3,1.7l2.2,5.9l2.1-6c0-0.1,0.1-0.2,0.1-0.2c-0.1,0-0.2,0-0.4,0h-0.1
	c-0.2,0-0.4-0.1-0.6-0.2c-0.2-0.2-0.2-0.5-0.3-0.7c0-0.2,0.1-0.4,0.2-0.6c0.2-0.2,0.4-0.3,0.6-0.3c0.8,0,1.5,0.1,2,0.1
	c0.2,0,0.7,0,1.3,0l0.4,0c0,0,0,0,0,0c0.3,0,0.5,0.1,0.7,0.3l0,0c0.1,0.2,0.2,0.4,0.2,0.6c0,0.2-0.1,0.5-0.3,0.7
	C28.3,11.6,28.2,11.7,27.9,11.7z"/>
</svg>
