<?xml version="1.0" encoding="utf-8"?>
<!-- Generator: Adobe Illustrator 25.2.1, SVG Export Plug-In . SVG Version: 6.00 Build 0)  -->
<svg version="1.1" id="Layer_1" xmlns="http://www.w3.org/2000/svg" xmlns:xlink="http://www.w3.org/1999/xlink" x="0px" y="0px"
	 viewBox="0 0 32.6 32.6" style="enable-background:new 0 0 32.6 32.6;" xml:space="preserve">
<style type="text/css">
	.st0{fill:#EDEDED;}
</style>
<path class="st0" d="M16.3,0C7.3,0,0,7.3,0,16.3s7.3,16.3,16.3,16.3s16.3-7.3,16.3-16.3S25.3,0,16.3,0z M10.6,11.4
	c0-0.1,0.3-0.2,0.5-0.2c0.8,0,1.6,0,2.3,0.1c0.7,0,0.8-0.1,0.8-0.7c0-0.7,0-1.3,0-2c0,0,0,0,0,0c0-0.7,0-1.4,0-2.1
	c0-0.5,0.2-0.7,0.7-0.7c1.1,0,2.3,0,3.4,0C18.8,5.7,19,6,19,6.6c0,1.3,0,2.6-0.1,3.9c0,0.6,0.2,0.8,0.8,0.7c0.8,0,1.5-0.1,2.3-0.1
	c0.2,0,0.4,0.1,0.5,0.2c0.1,0.2,0,0.4-0.1,0.6c-1.6,1.5-3.1,2.9-4.7,4.4c-0.2,0.2-0.4,0.4-0.6,0.6c-0.4,0.4-0.7,0.4-1.1,0
	c-0.8-0.8-1.6-1.5-2.4-2.3c-0.9-0.8-1.8-1.7-2.7-2.5c-0.1-0.1-0.2-0.1-0.2-0.2C10.6,11.7,10.5,11.5,10.6,11.4z M28.3,21.8
	c-0.1,0.7-0.3,1.4-0.4,2.1c-0.1,0.8-1,1.8-1.9,1.8c-3.2,0-6.3,0-9.5,0c-3.1,0-6.3,0-9.4,0c-1,0-1.7-0.6-1.9-1.6
	C5,23,4.8,21.9,4.6,20.8c-0.1-0.7,0.1-1.3,0.6-1.7c0.5-0.4,1.1-0.8,1.6-1.1c0.7-0.5,1.3-0.9,2-1.4c0.1-0.1,0.3-0.2,0.5-0.2
	c0.5-0.1,1-0.1,1.6-0.1c0.2,0,0.4,0.1,0.4,0.3c0,0.1-0.1,0.4-0.2,0.5c-0.5,0.4-1,0.8-1.5,1.1c-0.4,0.3-0.8,0.6-1.2,0.9
	c-0.1,0.1-0.1,0.2-0.2,0.4c0.1,0,0.3,0.1,0.4,0.1c0.7,0,1.4,0,2.2-0.1c1.2-0.1,1.3,0.1,1.8,1.4c0.1,0.4,0.3,0.7,0.4,1.1
	c0.1,0.3,0.4,0.4,0.7,0.4c1.8,0,3.6,0,5.4,0c0.7,0,0.9-0.1,1.1-0.7c0.2-0.5,0.4-1,0.6-1.5c0.2-0.5,0.6-0.6,1.1-0.6
	c0.8,0,1.6,0.1,2.5,0.1c0.1,0,0.3-0.1,0.4-0.1c-0.1-0.1-0.1-0.3-0.2-0.4c-0.4-0.3-0.8-0.6-1.3-0.9c-0.4-0.3-0.8-0.5-1.2-0.8
	c-0.1-0.1-0.2-0.2-0.3-0.3c-0.2-0.3-0.1-0.7,0.2-0.7c0.8,0,1.5-0.2,2.2,0.4c1.1,0.8,2.3,1.6,3.4,2.4c0.5,0.4,0.9,0.9,0.8,1.6
	C28.4,21,28.3,21.4,28.3,21.8z"/>
</svg>
