<?xml version="1.0" encoding="utf-8"?>
<!-- Generator: Adobe Illustrator 25.2.1, SVG Export Plug-In . SVG Version: 6.00 Build 0)  -->
<svg version="1.1" id="Layer_1" xmlns="http://www.w3.org/2000/svg" xmlns:xlink="http://www.w3.org/1999/xlink" x="0px" y="0px"
	 viewBox="0 0 33.4 32.6" style="enable-background:new 0 0 33.4 32.6;" xml:space="preserve">
<style type="text/css">
	.st0{fill:#EDEDED;}
</style>
<path class="st0" d="M16.5,0C7.2,0,0,7.1,0,16.4c0,7.5,4.7,13.9,11.4,16.1c0.9,0.2,1.2-0.4,1.2-0.8c0-0.4,0-2.7,0-4.1
	c0,0-4.7,1-5.7-2c0,0-0.8-2-1.9-2.5c0,0-1.5-1.1,0.1-1c0,0,1.7,0.1,2.6,1.7c1.5,2.6,4,1.9,4.9,1.4c0.2-1.1,0.6-1.8,1.1-2.3
	c-3.8-0.4-7.6-1-7.6-7.4c0-1.9,0.5-2.8,1.6-4C7.5,11.1,7,9.3,7.9,7c1.4-0.4,4.7,1.8,4.7,1.8c1.3-0.4,2.8-0.6,4.2-0.6
	s2.9,0.2,4.2,0.6c0,0,3.2-2.3,4.7-1.8c0.9,2.3,0.4,4.1,0.2,4.6c1.1,1.2,1.7,2.1,1.7,4c0,6.5-4,7-7.7,7.4c0.6,0.5,1.1,1.5,1.1,3.1
	c0,2.3,0,5.1,0,5.6c0,0.4,0.3,1,1.2,0.8c6.7-2.2,11.3-8.6,11.3-16.1C33.4,7.1,25.9,0,16.5,0z"/>
</svg>
