<?xml version="1.0" encoding="utf-8"?>
<!-- Generator: Adobe Illustrator 25.2.1, SVG Export Plug-In . SVG Version: 6.00 Build 0)  -->
<svg version="1.1" id="Layer_1" xmlns="http://www.w3.org/2000/svg" xmlns:xlink="http://www.w3.org/1999/xlink" x="0px" y="0px"
	 viewBox="0 0 32.6 32.6" style="enable-background:new 0 0 32.6 32.6;" xml:space="preserve">
<style type="text/css">
	.st0{fill:#EDEDED;}
</style>
<path class="st0" d="M16.3,0C7.3,0,0,7.3,0,16.3s7.3,16.3,16.3,16.3s16.3-7.3,16.3-16.3S25.3,0,16.3,0z M11.5,23.2
	c-0.6,0-1.1,0-1.7,0c-0.5,0-0.8-0.3-0.8-0.9c0-1.5,0-3.1,0-4.6c0,0,0,0,0,0c0-1.5,0-3,0-4.4c0-0.2,0-0.3,0-0.5
	c0-0.3,0.2-0.5,0.6-0.5c0.8,0,1.6,0,2.3,0c0.4,0,0.6,0.2,0.6,0.6c0,0.2,0,0.4,0,0.6c0,2.9,0,5.7,0,8.6
	C12.6,22.9,12.3,23.2,11.5,23.2z M9.8,10.9c-0.5-0.3-0.8-0.6-1-1.1C8.8,9.6,8.8,9.4,8.8,9.1c0.2-0.8,1-1.6,1.9-1.7
	c1-0.1,2,0.7,1.9,1.8C12.9,10.7,10.9,11.6,9.8,10.9z M23.6,23.1c-0.6,0-1.1,0-1.7,0c-0.6,0-1-0.4-1-0.9c0-1.3,0-2.6,0-3.9
	c0-0.5,0-1,0-1.4c-0.1-0.5-0.2-1-0.3-1.4c-0.1-0.4-0.6-0.5-1-0.6c-0.5-0.2-1.5,0.3-1.7,0.9c-0.2,0.5-0.3,1-0.3,1.6
	c0,1.3,0,2.6,0,3.9c0,0.3,0,0.6,0,0.9c0,0.7-0.4,1.1-1.1,1c-0.5,0-0.9,0-1.4,0c-0.2,0-0.4,0-0.6,0c-0.4-0.1-0.6-0.3-0.6-0.7
	c0-0.3,0-0.5,0-0.8c0-2.5,0-4.9,0-7.4c0-0.4,0-0.8,0-1.2c0-0.5,0.2-0.7,0.6-0.7c0.6,0,1.2,0,1.8,0c0.4,0,0.6,0.2,0.6,0.6
	c0,0.2,0.1,0.4,0.2,0.4c0.1,0,0.3-0.1,0.4-0.2c1-1.1,2.3-1.3,3.7-1c1.1,0.2,1.9,1,2.4,2c0.4,0.8,0.6,1.7,0.6,2.6c0,0.9,0,1.8,0,2.8
	c0,0,0,0,0,0c0,0.9,0,1.8,0,2.7C24.7,22.8,24.3,23.1,23.6,23.1z"/>
</svg>
