<?xml version="1.0" encoding="utf-8"?>
<!-- Generator: Adobe Illustrator 25.2.1, SVG Export Plug-In . SVG Version: 6.00 Build 0)  -->
<svg version="1.1" id="Layer_1" xmlns="http://www.w3.org/2000/svg" xmlns:xlink="http://www.w3.org/1999/xlink" x="0px" y="0px"
	 viewBox="0 0 32.6 32.6" style="enable-background:new 0 0 32.6 32.6;" xml:space="preserve">
<style type="text/css">
	.st0{fill:#EDEDED;}
</style>
<path class="st0" d="M16.3,0C7.3,0,0,7.3,0,16.3s7.3,16.3,16.3,16.3s16.3-7.3,16.3-16.3S25.3,0,16.3,0z M6.3,10.1
	C6.4,9.7,6.6,9.6,7,9.6c0.2,0,0.4,0,0.6,0c3,0,6,0,9.1,0c3,0,6.1,0,9.1,0c0.2,0,0.4,0,0.6,0.1c0.2,0.1,0.4,0.3,0.5,0.4
	c0,0.2,0,0.5-0.2,0.7c-0.3,0.3-0.7,0.5-1.1,0.8c-0.5,0.3-1.1,0.6-1.6,0.9c-0.4,0.2-0.8,0.4-1.2,0.6c-0.8,0.4-1.6,0.8-2.4,1.3
	c-0.8,0.5-1.7,1-2.5,1.4c-0.8,0.4-1.7,0.4-2.5,0c-0.5-0.2-0.9-0.5-1.4-0.8c-0.6-0.3-1.2-0.7-1.9-1c-0.5-0.3-1-0.5-1.5-0.8
	c-0.5-0.2-0.9-0.5-1.4-0.8c-0.4-0.2-0.8-0.4-1.1-0.6c-0.4-0.2-0.8-0.5-1.3-0.7C6.4,10.7,6.2,10.4,6.3,10.1z M26.9,21.4
	c0,1.1-0.9,1.9-1.9,1.9c-2.8,0-5.6,0-8.3,0c-2.8,0-5.6,0-8.4,0c-1.1,0-2-0.9-2-2.2c0.1-2.3,0-4.7,0-7c0-0.2,0-0.4,0.1-0.6
	c0.1-0.5,0.5-0.6,0.9-0.4c0.5,0.3,1,0.5,1.5,0.8c0.5,0.3,1,0.6,1.6,0.9c0.5,0.3,1,0.5,1.5,0.8c0.4,0.2,0.9,0.4,1.4,0.7
	c0.7,0.3,1.4,0.7,2,1.1c0.5,0.3,1,0.5,1.6,0.4c0.3-0.1,0.6-0.2,0.9-0.3c0.5-0.2,1.1-0.5,1.6-0.8c0.6-0.3,1.1-0.6,1.7-0.9
	c0.4-0.2,0.8-0.4,1.2-0.6c0.9-0.5,1.8-0.9,2.7-1.4c0.3-0.2,0.7-0.4,1-0.6c0.2-0.1,0.5-0.3,0.8-0.1c0.3,0.2,0.3,0.5,0.3,0.7
	C26.9,16.4,26.9,18.9,26.9,21.4z"/>
</svg>
