<?xml version="1.0" encoding="utf-8"?>
<!-- Generator: Adobe Illustrator 25.2.1, SVG Export Plug-In . SVG Version: 6.00 Build 0)  -->
<svg version="1.1" id="Layer_1" xmlns="http://www.w3.org/2000/svg" xmlns:xlink="http://www.w3.org/1999/xlink" x="0px" y="0px"
	 viewBox="0 0 32.6 32.6" style="enable-background:new 0 0 32.6 32.6;" xml:space="preserve">
<style type="text/css">
	.st0{fill:#EDEDED;}
</style>
<path class="st0" d="M16.3,0C7.3,0,0,7.3,0,16.3s7.3,16.3,16.3,16.3s16.3-7.3,16.3-16.3S25.3,0,16.3,0z M26,10.6
	c-0.3,0.8-0.5,1.7-0.8,2.5c-0.2,0.5-0.4,1-0.7,1.5c-0.3,0.6-0.7,1.2-1.1,1.8c-0.6,0.8-1.1,1.6-1.8,2.3c-1.1,1.2-2.2,2.3-3.3,3.3
	c-0.9,0.8-1.9,1.6-2.9,2.1c-0.9,0.5-1.7,1-2.6,1.4c-1.2,0.5-2.5,1-3.9,0.8c-0.6-0.1-1.1-0.4-1.5-0.8c-0.5-0.5-0.9-1-1.4-1.5
	c-0.7-0.8-0.5-1.9,0.1-2.7c0.5-0.7,1.1-1.2,1.8-1.6c0.5-0.3,1-0.8,1.7-0.7c0.7-0.1,1.1,0.4,1.6,0.7c0.2,0.2,0.5,0.4,0.7,0.6
	c0.5,0.5,1.2,0.5,1.8,0.2c2-1.3,3.6-3,5.2-4.7c0.6-0.7,1.1-1.3,1.4-2.2c0.1-0.3,0.1-0.6-0.1-0.9c-0.3-0.3-0.6-0.7-0.9-1
	c-0.5-0.6-0.7-1.3-0.4-2.1c0.4-1,1-1.9,1.7-2.6c0.2-0.2,0.5-0.5,0.8-0.7c0.6-0.5,1.3-0.5,2-0.1c0.9,0.6,1.7,1.4,2.3,2.3
	C26,9.1,26.3,9.8,26,10.6z"/>
</svg>
